<svg xmlns="http://www.w3.org/2000/svg" width="152.644" height="23.188" viewBox="0 0 152.644 23.188">
  <path id="logo" d="M4.4-.5H1.364a.285.285,0,0,0-.31.279A.3.3,0,0,0,1.4.093c.248,0,3.317-.155,4.619-.155,1.271,0,2.7.155,3.968.155,3.441,0,8.277-1.054,8.277-5.766,0-3.565-2.759-5.3-6.076-5.8,3.1-.4,5.58-2.108,5.58-5.363,0-4.712-5.053-5.3-8.091-5.3-.961,0-2.046.062-2.883.062-1.054,0-5.115-.093-5.332-.093-.341,0-.4.124-.4.279a.292.292,0,0,0,.31.31H4.4ZM7.5-.589V-11.16h.4c3.162,0,7.13.217,7.13,5.394,0,4.96-3.689,5.177-6.665,5.177Zm0-11.16v-9.827H7.6c2.976,0,6.944.031,6.944,5.022,0,4.743-3.565,4.805-6.634,4.805Zm25.42,4.278c.248,0,.434-.031.434-.31a4.447,4.447,0,0,0-.124-.682c-.651-2.666-2.48-4.96-5.58-4.96a6.833,6.833,0,0,0-6.665,7.1A6.445,6.445,0,0,0,27.59.4a5.531,5.531,0,0,0,5.456-3.844,2.081,2.081,0,0,0,.155-.5.221.221,0,0,0-.217-.248c-.248,0-.341.217-.4.372A4.941,4.941,0,0,1,27.745-.186c-3.379,0-3.658-2.728-3.658-7.285Zm-8.8-.589c.124-3.069,1.085-4.774,3.255-4.774,2.418,0,2.635,2.108,2.635,4.774ZM46.872-9.765c0-2.976-3.379-3.658-5.7-3.658-3.534,0-4.309,1.55-4.309,2.821a1.548,1.548,0,0,0,1.55,1.767,1.334,1.334,0,0,0,1.4-1.395,1.335,1.335,0,0,0-1.426-1.364,1.427,1.427,0,0,0-.4.062c-.031,0-.031-.093-.031-.093,0-.372.682-1.209,3.131-1.209,2.852,0,2.852,1.364,2.852,3.968V-7.1a4.087,4.087,0,0,0-3.007-.992c-3.441,0-5.456,2.17-5.456,4.712C35.464-1.023,37.262.4,39.68.4a5.579,5.579,0,0,0,4.309-2.046C44.3-.217,45.415.217,46.934.217c2.139,0,2.449-.775,2.449-1.612,0-.093,0-.4-.279-.4-.31,0-.31.31-.31.4,0,.434-.031.961-.93.961-.992,0-.992-.62-.992-2.914Zm-2.945,7.44A3.262,3.262,0,0,1,41.2-.589c-1.643,0-2.635-1.333-2.635-3.565,0-1.7.589-3.379,2.852-3.379a3.052,3.052,0,0,1,2.511,1.085ZM55.831-.5V-6.82c0-2.418.682-5.828,2.883-5.828.837,0,1.488.465,1.488.9,0,.062,0,.093-.031.093a1.7,1.7,0,0,0-.682-.155,1.326,1.326,0,0,0-1.364,1.4,1.242,1.242,0,0,0,1.364,1.333c1.054,0,1.612-.775,1.612-1.891a2.125,2.125,0,0,0-2.325-2.263,3.157,3.157,0,0,0-2.945,2.6v-2.046c0-.217,0-.279-.124-.279a13.985,13.985,0,0,1-1.953.155c-.961,0-1.4,0-3.007-.031a.316.316,0,0,0-.341.279.319.319,0,0,0,.341.31h1.209c.713,0,.93.186.93,1.147V-.5H50.747a.316.316,0,0,0-.341.279.319.319,0,0,0,.341.31c.558,0,1.8-.093,3.72-.093,1.581,0,2.2.062,3.5.093a.319.319,0,0,0,.341-.31A.316.316,0,0,0,57.97-.5ZM67.27-.5V-22.537c0-.186,0-.248-.124-.248a15.823,15.823,0,0,1-1.922.124H62.186c-.217,0-.341.124-.341.279a.319.319,0,0,0,.341.31h1.24c.682,0,.9.155.9,1.147V-.5H62.186a.316.316,0,0,0-.341.279.319.319,0,0,0,.341.31c.558,0,1.829-.093,3.72-.093,1.581,0,2.232.062,3.5.093a.319.319,0,0,0,.341-.31A.316.316,0,0,0,69.409-.5Zm9.021,0V-12.679c0-.217,0-.279-.124-.279a13.985,13.985,0,0,1-1.953.155c-1.488,0-1.922,0-3.007-.031a.316.316,0,0,0-.341.279.319.319,0,0,0,.341.31h1.209c.713,0,.93.186.93,1.147V-.5H71.207a.316.316,0,0,0-.341.279.319.319,0,0,0,.341.31c.558,0,1.8-.093,3.72-.093,1.581,0,2.2.062,3.5.093a.319.319,0,0,0,.341-.31A.316.316,0,0,0,78.43-.5Zm.217-18.569a1.727,1.727,0,0,0-1.736-1.7,1.694,1.694,0,0,0-1.674,1.7,1.674,1.674,0,0,0,1.674,1.7A1.707,1.707,0,0,0,76.508-19.065ZM80.755-.279c0,.248.093.341.31.341.248,0,.279-.093.279-.341,0-.589,0-.775.186-.775.4,0,1.829,1.457,3.937,1.457,3.131,0,5.084-1.86,5.084-4.464,0-5.673-8.525-3.41-8.525-6.51a2.365,2.365,0,0,1,2.542-2.263c1.767,0,3.069.651,4.247,2.945.093.186.124.279.279.279.186,0,.341-.031.341-.186a.958.958,0,0,0-.062-.248,9.1,9.1,0,0,1-.279-2.883.293.293,0,0,0-.31-.31c-.186,0-.279.124-.279.31v.527c0,.279,0,.434-.124.434-.093,0-.186-.062-.434-.248a4.755,4.755,0,0,0-3.317-1.209A3.782,3.782,0,0,0,80.662-9.8c0,5.58,8.37,3.131,8.37,6.913,0,1.829-1.767,2.7-3.379,2.7-2.077,0-4.309-1.457-4.309-3.813,0-.279-.062-.31-.279-.31a.293.293,0,0,0-.31.31Zm12.462,0c0,.248.093.341.31.341.248,0,.279-.093.279-.341,0-.589,0-.775.186-.775C94.4-1.054,95.821.4,97.929.4c3.131,0,5.084-1.86,5.084-4.464,0-5.673-8.525-3.41-8.525-6.51a2.365,2.365,0,0,1,2.542-2.263c1.767,0,3.069.651,4.247,2.945.093.186.124.279.279.279.186,0,.341-.031.341-.186a.958.958,0,0,0-.062-.248,9.1,9.1,0,0,1-.279-2.883.293.293,0,0,0-.31-.31c-.186,0-.279.124-.279.31v.527c0,.279,0,.434-.124.434-.093,0-.186-.062-.434-.248a4.755,4.755,0,0,0-3.317-1.209A3.782,3.782,0,0,0,93.124-9.8c0,5.58,8.37,3.131,8.37,6.913,0,1.829-1.767,2.7-3.379,2.7-2.077,0-4.309-1.457-4.309-3.813,0-.279-.062-.31-.279-.31a.293.293,0,0,0-.31.31ZM110.267-.5V-12.679c0-.217,0-.279-.124-.279a13.985,13.985,0,0,1-1.953.155c-1.488,0-1.922,0-3.007-.031a.316.316,0,0,0-.341.279.319.319,0,0,0,.341.31h1.209c.713,0,.93.186.93,1.147V-.5h-2.139a.316.316,0,0,0-.341.279.319.319,0,0,0,.341.31c.558,0,1.8-.093,3.72-.093,1.581,0,2.2.062,3.5.093a.319.319,0,0,0,.341-.31.316.316,0,0,0-.341-.279Zm.217-18.569a1.727,1.727,0,0,0-1.736-1.7,1.694,1.694,0,0,0-1.674,1.7,1.674,1.674,0,0,0,1.674,1.7A1.707,1.707,0,0,0,110.484-19.065ZM136.865-.5v-7.44c0-2.356-.837-5.3-4.278-5.3-3.193,0-4.185,2.511-4.65,3.658a3.99,3.99,0,0,0-4.123-3.658,4.683,4.683,0,0,0-4.5,3.379v-2.821c0-.217,0-.279-.124-.279a12.722,12.722,0,0,1-1.922.155c-.992,0-1.426,0-3.038-.031a.316.316,0,0,0-.341.279.319.319,0,0,0,.341.31h1.24c.682,0,.9.186.9,1.147V-.5h-2.139a.316.316,0,0,0-.341.279.319.319,0,0,0,.341.31c.558,0,1.829-.093,3.72-.093,1.581,0,2.232.062,3.5.093a.319.319,0,0,0,.341-.31.316.316,0,0,0-.341-.279h-2.139v-6.82c0-2.821,1.643-5.3,3.813-5.3,1.643,0,2.015,1.488,2.015,3.348V-.5h-2.139a.316.316,0,0,0-.341.279.319.319,0,0,0,.341.31c.558,0,1.829-.093,3.751-.093,1.55,0,2.2.062,3.5.093a.311.311,0,0,0,.31-.31.306.306,0,0,0-.31-.279h-2.17V-7.409c0-2.79,1.674-5.208,3.813-5.208,1.643,0,2.015,1.488,2.015,3.348V-.5h-2.139a.285.285,0,0,0-.31.279.292.292,0,0,0,.31.31c.558,0,1.829-.093,3.751-.093,1.55,0,2.2.062,3.5.093a.311.311,0,0,0,.31-.31.306.306,0,0,0-.31-.279Zm10.261.9A6.741,6.741,0,0,0,153.7-6.386c0-3.534-2.821-7.037-6.572-7.037-3.782,0-6.572,3.5-6.572,7.037A6.721,6.721,0,0,0,147.126.4Zm0-.589c-2.635,0-3.472-3.038-3.472-6.231,0-3.224.837-6.417,3.472-6.417,2.6,0,3.472,3.255,3.472,6.479C150.6-3.162,149.73-.186,147.126-.186Z" transform="translate(-1.054 22.785)" fill="#dbcda6"/>
</svg>
